PathFileType	4	(X/Y/Z)	D:\TRACE\v60_Jaco2_6-2-23\BothDRS_Motion1_3-platform.trc
DataRate	CameraRate	NumFrames	NumMarkers	Units	OrigDataRate	OrigDataStartFrame	OrigNumFrames
100.00	100.00	      72	5	mm	100.00	3537	      7073
Frame#	Time	Left_Front			Right_Front			Left_Aft			Right_Aft			Post			
		X1	Y1	Z1	X2	Y2	Z2	X3	Y3	Z3	X4	Y4	Z4	X5	Y5	Z5	

3537	35.360	-796.50372	-19.86525	-645.12823	773.47662	-18.06961	-650.24597	-704.71552	26.75720	488.96274	737.70056	27.32949	498.72021	-11.00094	1264.71875	-1024.68616	
3538	35.370	-797.51294	-19.80309	-645.19513	772.56824	-18.06601	-650.18909	-705.46588	26.54331	488.92957	736.71576	27.31283	498.76688	-11.62232	1264.72180	-1024.41846	
3539	35.380	-798.80389	-19.43458	-645.13940	771.70868	-17.82187	-650.19678	-706.64465	26.73313	488.98596	735.68304	27.22327	498.70029	-12.65272	1265.01489	-1023.61688	
3540	35.390	-799.59436	-19.34290	-644.97205	770.49939	-17.65991	-650.26721	-707.70313	26.86411	488.95160	734.80963	27.25266	498.84882	-13.65998	1265.30444	-1023.25580	
3541	35.400	-800.48749	-19.30808	-644.98730	769.65283	-17.70672	-650.27502	-708.55420	26.46451	489.25156	733.63440	26.97123	498.80429	-14.66535	1265.40515	-1022.36743	
3542	35.410	-801.32141	-19.54152	-644.98712	768.51135	-17.71005	-650.33771	-709.51764	26.43619	489.29504	732.81335	26.87034	498.92877	-15.32644	1265.53418	-1021.92389	
3543	35.420	-802.56848	-19.34151	-645.10022	767.50317	-17.36542	-650.27118	-710.45300	26.40993	489.22797	731.90784	26.92847	498.94571	-16.73797	1265.79968	-1021.09656	
3544	35.430	-803.25525	-18.88746	-645.10260	766.65112	-17.21430	-650.13654	-711.44470	26.24284	489.12140	730.73395	26.78693	498.85333	-17.34917	1266.03381	-1020.92615	
3545	35.440	-804.36847	-18.83569	-644.92786	765.62811	-17.06164	-650.08954	-712.32654	26.17916	489.08893	729.05994	26.05836	499.25351	-18.68526	1266.30957	-1020.55475	
3546	35.450	-805.49341	-18.64414	-644.80798	764.90295	-17.03069	-650.00214	-714.28271	27.04380	489.55096	728.15045	26.39132	499.62790	-19.74321	1266.55127	-1020.52484	
3547	35.460	-806.56256	-18.82526	-644.80396	763.71667	-16.76944	-650.09558	-715.16736	26.96085	489.73859	727.23157	25.94105	499.40479	-20.41683	1266.74744	-1020.45215	
3548	35.470	-807.30273	-18.79434	-645.00244	762.82123	-16.63034	-649.96893	-716.01294	26.70531	489.66916	726.52448	26.00051	499.46552	-21.21713	1267.04480	-1020.23779	
3549	35.480	-808.17090	-18.34930	-644.67804	761.89728	-16.48276	-649.91858	-717.11151	26.52085	489.75409	725.61530	25.84832	499.50513	-22.08802	1267.20288	-1020.23010	
3550	35.490	-809.36316	-17.98182	-644.53156	761.05353	-16.10283	-649.65918	-717.88257	26.33353	489.78613	724.79425	25.90026	499.68555	-23.57909	1267.83081	-1020.26544	
3551	35.500	-810.27966	-17.47022	-644.64020	759.79059	-15.78894	-649.81573	-718.58221	26.17547	489.85159	724.16962	25.85493	499.76309	-24.32450	1268.16772	-1020.19720	
3552	35.510	-810.94397	-17.61799	-644.24384	759.30579	-15.61526	-649.54443	-719.76709	25.65452	489.88782	723.17200	25.58915	499.63062	-24.97239	1268.44714	-1019.82513	
3553	35.520	-812.18573	-17.50237	-644.33337	758.18353	-15.42843	-649.55054	-720.32025	25.39088	490.05704	722.23322	25.35599	499.66846	-26.19731	1268.88550	-1019.25537	
3554	35.530	-813.27478	-17.17472	-644.48718	756.88873	-15.31351	-649.66229	-721.37988	25.21648	490.07306	721.19202	25.22525	499.74857	-26.80021	1269.12024	-1018.51770	
3555	35.540	-814.03339	-16.65568	-644.81158	756.03217	-15.00367	-649.49030	-722.26709	24.92626	490.16235	720.25739	25.11963	499.76437	-27.71063	1269.46252	-1017.82092	
3556	35.550	-814.98151	-16.42890	-644.30817	755.16174	-14.58270	-649.40430	-722.93372	24.69323	490.11710	719.28510	24.98928	499.83069	-29.12713	1269.91455	-1016.97455	
3557	35.560	-816.08099	-15.94809	-644.01459	754.19501	-14.40044	-649.48889	-724.08423	24.67184	490.10950	718.13690	24.72537	499.94318	-29.80774	1270.29492	-1016.13959	
3558	35.570	-817.04901	-15.93252	-644.29132	753.03528	-14.18991	-649.41443	-725.07782	24.50267	490.30780	717.44098	24.50445	499.95352	-30.86730	1270.58850	-1015.05054	
3559	35.580	-817.70331	-15.51575	-644.70941	752.12878	-13.94794	-649.51221	-725.99072	24.20980	490.38910	716.36090	24.33563	499.99805	-31.91953	1270.80017	-1014.17609	
3560	35.590	-818.96936	-15.49887	-644.16223	751.36560	-13.79184	-649.48828	-726.97412	24.05220	490.38736	715.39386	24.18901	500.13312	-32.74896	1271.42615	-1013.23444	
3561	35.600	-819.67065	-15.34701	-644.02521	750.18536	-13.59913	-649.37683	-727.92871	24.05444	490.47205	714.56799	24.01995	500.20395	-33.73110	1272.00012	-1012.55219	
3562	35.610	-820.73596	-14.86365	-643.90607	749.26141	-13.18318	-649.08643	-728.57300	23.59551	490.54642	713.54321	23.77708	500.24908	-34.68472	1272.53357	-1012.13586	
3563	35.620	-821.58026	-14.53926	-644.13141	748.39929	-12.85501	-649.23328	-729.60541	23.51454	490.60568	712.34943	23.58023	500.40689	-35.59259	1273.11011	-1012.09045	
3564	35.630	-822.69617	-14.37401	-643.77130	747.74786	-12.75593	-649.04199	-730.49329	23.34908	490.68448	711.81689	23.22225	500.38483	-36.40768	1273.43018	-1011.76031	
3565	35.640	-823.39142	-14.01190	-643.76251	746.59521	-12.32016	-649.01093	-731.65936	22.84393	490.87161	710.76538	22.99894	500.47876	-37.73521	1274.07214	-1011.33771	
3566	35.650	-824.17279	-13.64608	-643.75977	745.56726	-12.08393	-649.02875	-732.45178	22.80755	491.09378	709.91840	22.68989	500.60287	-38.21819	1274.41553	-1010.92371	
3567	35.660	-825.28925	-13.02197	-643.63898	744.88867	-11.66658	-648.75446	-733.26532	22.45241	491.04178	708.99176	22.46668	500.84515	-38.89529	1274.73889	-1010.15594	
3568	35.670	-826.25311	-12.85315	-643.42889	743.86780	-11.12840	-648.76312	-734.16119	22.37713	491.11142	708.21173	22.30505	500.90506	-39.79494	1275.48132	-1009.65533	
3569	35.680	-827.05426	-12.42813	-643.29907	743.18854	-10.76673	-648.58484	-735.10504	22.17577	491.33112	707.38098	21.98744	501.03345	-40.85899	1276.05554	-1008.65131	
3570	35.690	-827.77753	-12.10213	-643.57843	742.19879	-10.36992	-648.47943	-735.97009	21.80060	491.44836	706.22913	21.67332	501.04193	-41.69664	1276.70361	-1007.93872	
3571	35.700	-829.06543	-11.60009	-643.39484	741.00531	-10.16831	-648.52850	-736.93518	21.58665	491.54901	705.32104	21.39334	501.08984	-42.52355	1277.11719	-1007.05902	
3572	35.710	-829.68927	-11.42333	-643.43567	740.47223	-10.01828	-648.51233	-737.71863	21.44599	491.67569	704.62170	21.34794	501.33914	-43.74825	1277.77271	-1005.50964	
3573	35.720	-830.49377	-11.05083	-643.04272	739.56818	-9.46453	-648.38733	-738.52625	21.14620	491.61771	703.73505	21.14248	501.47031	-44.15263	1278.33838	-1004.67267	
3574	35.730	-831.25098	-10.57311	-643.07141	738.93384	-8.88813	-647.93372	-739.43555	21.01904	491.64746	702.83807	20.79811	501.45786	-45.58610	1278.71777	-1003.65015	
3575	35.740	-832.36548	-10.15495	-643.09314	738.02740	-8.75814	-648.02747	-740.29181	20.75364	491.80200	701.94080	20.28841	501.68298	-46.31794	1279.37744	-1002.48657	
3576	35.750	-833.10638	-9.75665	-643.01465	737.04980	-8.26005	-648.02301	-740.98352	20.37118	492.06534	700.90594	19.96204	501.90860	-46.60910	1279.97852	-1001.70435	
3577	35.760	-833.62030	-9.66717	-642.98065	736.39551	-7.85993	-647.81580	-741.82849	20.00621	492.20474	700.45404	20.02185	501.73050	-47.61916	1280.69629	-1000.94391	
3578	35.770	-834.63062	-9.02199	-642.63910	735.52216	-7.50075	-647.74274	-742.82336	19.83401	492.25327	699.83472	19.71723	501.84845	-48.59450	1281.14355	-1000.41742	
3579	35.780	-835.54279	-8.34009	-642.60034	734.61914	-6.81750	-647.72711	-743.43970	19.55770	492.34833	698.84186	19.40706	501.82611	-49.51857	1281.91895	-999.62482	
3580	35.790	-836.21118	-7.64620	-642.49078	734.12854	-6.39771	-647.49042	-744.14484	19.24902	492.38974	697.83588	19.04248	501.87622	-49.76874	1282.54236	-999.21582	
3581	35.800	-836.86798	-7.33255	-642.84247	733.25732	-6.19818	-647.46173	-744.98254	19.07299	492.45212	697.40643	18.83092	502.01736	-51.06228	1283.07800	-998.31152	
3582	35.810	-837.42700	-7.68521	-642.53851	732.56000	-6.11548	-647.44153	-745.66748	18.75087	492.67349	697.02332	18.59290	502.26752	-51.41810	1283.69141	-997.54175	
3583	35.820	-838.61133	-7.03038	-642.22113	731.84650	-5.87710	-647.38324	-746.34790	18.20434	492.76123	695.41962	18.16997	502.41583	-52.29454	1284.23816	-996.55865	
3584	35.830	-839.18970	-6.51570	-642.13287	730.99457	-5.04731	-647.29797	-747.23175	18.00203	492.90146	694.93329	17.90726	502.42245	-52.91146	1284.94421	-996.05731	
3585	35.840	-839.86395	-5.88647	-641.98523	730.30292	-4.76659	-647.06573	-747.98224	17.90960	493.04352	694.53583	17.56739	502.53516	-53.56536	1285.77625	-994.57599	
3586	35.850	-840.57220	-5.50937	-641.78467	729.68970	-4.40348	-646.93201	-748.57794	17.56694	493.16644	693.62347	17.19831	502.63458	-54.46199	1286.58337	-993.61914	
3587	35.860	-841.27136	-4.99088	-641.68225	729.07117	-3.90838	-646.80310	-749.14270	17.17946	493.20731	692.68842	16.88007	502.90820	-54.90094	1287.08899	-992.68842	
3588	35.870	-842.11810	-4.79433	-641.59186	728.36157	-3.48352	-646.88708	-749.80872	16.98727	493.32468	692.35657	16.68452	502.96570	-55.16908	1287.56213	-991.13129	
3589	35.880	-842.68854	-4.40245	-641.66180	727.50433	-3.22334	-646.78925	-750.71979	16.58575	493.35468	691.75244	16.39668	502.94916	-56.34572	1288.25244	-990.14862	
3590	35.890	-843.07733	-3.64760	-641.73639	726.94427	-2.65261	-646.54590	-751.25818	16.20101	493.49887	690.94733	15.97017	503.01605	-56.89632	1288.77795	-989.27087	
3591	35.900	-843.63940	-3.19647	-641.60858	726.59375	-2.22826	-646.31750	-751.71912	16.09124	493.68137	690.23108	15.61857	503.28732	-57.55176	1289.53516	-987.69739	
3592	35.910	-844.46960	-2.65592	-641.30707	725.92590	-1.42791	-646.29944	-752.28632	15.85108	493.91919	689.60596	15.28684	503.41824	-58.15364	1290.15454	-987.25073	
3593	35.920	-845.10022	-2.42840	-641.24042	725.32074	-1.08257	-646.10822	-752.84448	15.51104	493.92935	689.44916	15.03547	503.43008	-59.08861	1291.18152	-986.19366	
3594	35.930	-845.53070	-2.12516	-641.36792	724.85724	-0.84246	-646.09454	-753.52417	15.27014	494.00974	688.70905	14.72096	503.43454	-59.24448	1291.79089	-985.46533	
3595	35.940	-846.09479	-1.56555	-641.11902	724.24371	-0.45067	-646.04047	-754.00037	14.94532	494.04477	688.27368	14.33129	503.51147	-59.61737	1292.20129	-984.76099	
3596	35.950	-846.36035	-1.18035	-640.83398	723.75311	0.01747	-645.93988	-754.53650	14.38827	494.26556	687.60712	13.84296	503.76929	-59.96225	1292.67407	-984.15784	
3597	35.960	-846.68127	-0.62833	-640.47406	723.32770	0.41690	-645.85828	-755.04639	14.15712	494.41254	687.33807	13.52391	503.97723	-60.50999	1293.74866	-983.26141	
3598	35.970	-847.28046	-0.06698	-640.54388	722.68817	0.95847	-645.89386	-755.32373	14.00771	494.57007	687.05212	13.29511	503.96619	-61.13494	1294.44067	-982.12927	
3599	35.980	-848.00323	0.46877	-640.68616	722.08118	1.40151	-645.75952	-755.80249	13.70247	494.65714	686.56537	13.01363	504.08798	-61.49449	1295.11206	-981.41327	
3600	35.990	-848.54523	0.98769	-640.62439	721.68237	1.81385	-645.63220	-756.22974	13.27929	494.54517	685.91718	12.63892	504.18381	-61.90210	1295.76697	-980.48932	
3601	36.000	-848.73547	1.26064	-640.53912	721.29065	2.30470	-645.48511	-756.63690	12.94250	494.67157	685.35425	12.38404	504.43353	-62.24286	1296.56824	-978.88617	
3602	36.010	-849.05298	1.74059	-640.47064	720.97620	2.70113	-645.44873	-756.95813	12.73209	495.00696	684.89709	12.00016	504.61658	-62.42668	1297.03076	-977.93433	
3603	36.020	-849.39581	2.30990	-640.23975	720.71771	3.08166	-645.36475	-757.27679	12.51692	495.18576	684.88873	11.73868	504.67352	-63.04488	1297.68152	-976.39050	
3604	36.030	-849.55243	2.67221	-640.04364	720.39667	3.59291	-645.28271	-757.80634	12.18384	495.21793	684.71698	11.38418	504.64297	-63.49374	1298.61487	-975.44061	
3605	36.040	-849.80200	3.01940	-639.75696	720.17938	3.93334	-645.22437	-758.08771	11.93290	495.26477	684.58612	11.15307	504.69366	-63.52546	1299.31091	-974.12378	
3606	36.050	-850.04675	3.36761	-639.65906	719.98419	4.26721	-645.03320	-758.28094	11.70801	495.41833	684.30078	10.60461	504.80936	-63.80180	1299.80188	-973.04608	
3607	36.060	-850.27728	3.77929	-639.64349	719.72852	4.72537	-644.93835	-758.47833	11.31395	495.59741	684.14032	10.37381	504.92206	-63.69312	1300.25793	-972.10083	
3608	36.070	-850.48547	4.28044	-639.50616	719.55237	5.47905	-644.77820	-758.61542	10.98343	495.68549	683.75610	10.03874	505.04169	-63.77934	1301.05957	-971.67615	
